<svg version="1.2" baseProfile="tiny-ps" xmlns="http://www.w3.org/2000/svg" viewBox="0 0 327 307" width="327" height="307">
	<title>1962412801-vector-ai</title>
	<style>
		tspan { white-space:pre }
		.shp0 { fill: #0040ff } 
		.shp1 { fill: #bacbff } 
		.shp2 { fill: #adc2ff } 
		.shp3 { fill: #7d9dff } 
		.shp4 { fill: #e3eaff } 
	</style>
	<g id="1">
		<g id="&lt;Group&gt;">
			<g id="&lt;Group&gt;">
				<g id="&lt;Group&gt;">
					<path id="&lt;Path&gt;" class="shp0" d="M282.52 280.5L38.48 280.5C36.28 280.5 34.5 278.72 34.5 276.52C34.5 274.32 36.28 272.54 38.48 272.54L282.52 272.54C284.72 272.54 286.5 274.32 286.5 276.52C286.5 278.72 284.72 280.5 282.52 280.5Z" />
					<path id="&lt;Path&gt;" class="shp1" d="M282.52 106.75L38.48 106.75L160.5 32.48L282.52 106.75Z" />
					<path id="&lt;Path&gt;" class="shp2" d="M277.21 106.75L75.62 106.75L160.5 43.09L277.21 106.75Z" />
					<path id="&lt;Path&gt;" class="shp3" d="M261.3 133.28L59.7 133.28L49.09 106.75L271.91 106.75L261.3 133.28Z" />
					<path id="&lt;Path&gt;" class="shp2" d="M250.69 133.28L59.7 133.28L53.29 117.26L257.96 115.1L250.69 133.28Z" />
					<path id="&lt;Path&gt;" class="shp3" d="M271.91 276.52L49.09 276.52L59.7 249.99L261.3 249.99L271.91 276.52Z" />
					<path id="&lt;Path&gt;" class="shp2" d="M261.3 276.52L49.09 276.52L53.26 266.08L254.89 260.49L261.3 276.52Z" />
					<path id="&lt;Compound Path&gt;" fill-rule="evenodd" class="shp0" d="M282.52 110.73L38.48 110.73C36.69 110.73 35.13 109.54 34.65 107.83C34.17 106.11 34.89 104.28 36.41 103.35L158.43 29.08C159.7 28.31 161.3 28.31 162.57 29.08L284.59 103.35C286.11 104.28 286.83 106.11 286.35 107.83C285.88 109.54 284.31 110.73 282.52 110.73ZM52.67 102.77L268.33 102.77L160.5 37.14L52.67 102.77Z" />
					<path id="&lt;Compound Path&gt;" fill-rule="evenodd" class="shp0" d="M261.3 137.26L59.7 137.26C58.07 137.26 56.61 136.27 56.01 134.75L45.39 108.23C44.9 107 45.05 105.61 45.79 104.52C46.53 103.43 47.77 102.77 49.09 102.77L271.91 102.77C273.23 102.77 274.47 103.43 275.21 104.52C275.95 105.61 276.1 107 275.61 108.23L264.99 134.75C264.39 136.27 262.93 137.26 261.3 137.26ZM62.4 129.3L258.6 129.3L266.03 110.73L54.97 110.73L62.4 129.3Z" />
					<path id="&lt;Path&gt;" class="shp3" d="M245.38 249.99L213.55 249.99L213.55 133.28L245.38 133.28L245.38 249.99Z" />
					<path id="&lt;Path&gt;" class="shp2" d="M234.77 249.99L213.55 249.99L213.55 143.89L229.47 143.89L234.77 249.99Z" />
					<path id="&lt;Compound Path&gt;" fill-rule="evenodd" class="shp0" d="M245.38 253.97L213.55 253.97C211.35 253.97 209.58 252.19 209.58 249.99L209.58 133.28C209.58 131.08 211.35 129.3 213.55 129.3L245.38 129.3C247.58 129.3 249.36 131.08 249.36 133.28L249.36 249.99C249.36 252.19 247.58 253.97 245.38 253.97ZM217.53 246.02L241.4 246.02L241.4 137.26L217.53 137.26L217.53 246.02Z" />
					<path id="&lt;Path&gt;" class="shp3" d="M176.41 249.99L144.59 249.99L144.59 133.28L176.41 133.28L176.41 249.99Z" />
					<path id="&lt;Path&gt;" class="shp2" d="M165.81 249.99L144.59 249.99L144.59 143.89L160.5 143.89L165.81 249.99Z" />
					<path id="&lt;Compound Path&gt;" fill-rule="evenodd" class="shp0" d="M176.41 253.97L144.59 253.97C142.39 253.97 140.61 252.19 140.61 249.99L140.61 133.28C140.61 131.08 142.39 129.3 144.59 129.3L176.41 129.3C178.61 129.3 180.39 131.08 180.39 133.28L180.39 249.99C180.39 252.19 178.61 253.97 176.41 253.97ZM148.56 246.02L172.44 246.02L172.44 137.26L148.56 137.26L148.56 246.02Z" />
					<path id="&lt;Path&gt;" class="shp3" d="M107.45 249.99L75.62 249.99L75.62 133.28L107.45 133.28L107.45 249.99Z" />
					<path id="&lt;Path&gt;" class="shp2" d="M96.84 249.99L75.62 249.99L75.62 143.89L91.53 143.89L96.84 249.99Z" />
					<path id="&lt;Compound Path&gt;" fill-rule="evenodd" class="shp0" d="M107.45 253.97L75.62 253.97C73.42 253.97 71.63 252.19 71.63 249.99L71.63 133.28C71.63 131.08 73.42 129.3 75.62 129.3L107.45 129.3C109.65 129.3 111.42 131.08 111.42 133.28L111.42 249.99C111.42 252.19 109.65 253.97 107.45 253.97ZM79.6 246.02L103.47 246.02L103.47 137.26L79.6 137.26L79.6 246.02Z" />
					<path id="&lt;Compound Path&gt;" fill-rule="evenodd" class="shp0" d="M271.91 280.5L49.09 280.5C47.77 280.5 46.53 279.84 45.79 278.75C45.05 277.66 44.9 276.27 45.39 275.04L56.01 248.52C56.61 247.01 58.07 246.02 59.7 246.02L261.3 246.02C262.93 246.02 264.39 247.01 264.99 248.52L275.61 275.04C276.1 276.27 275.95 277.66 275.21 278.75C274.47 279.84 273.23 280.5 271.91 280.5ZM54.97 272.54L266.03 272.54L258.6 253.97L62.4 253.97L54.97 272.54Z" />
					<path id="&lt;Path&gt;" class="shp4" d="M176.41 74.92C176.41 83.71 169.29 90.84 160.5 90.84C151.71 90.84 144.59 83.71 144.59 74.92C144.59 66.13 151.71 59 160.5 59C169.29 59 176.41 66.13 176.41 74.92Z" />
					<path id="&lt;Compound Path&gt;" fill-rule="evenodd" class="shp0" d="M160.5 94.81C149.53 94.81 140.61 85.89 140.61 74.92C140.61 63.95 149.53 55.02 160.5 55.02C171.47 55.02 180.39 63.95 180.39 74.92C180.39 85.89 171.47 94.81 160.5 94.81ZM160.5 62.98C153.92 62.98 148.56 68.34 148.56 74.92C148.56 81.5 153.92 86.86 160.5 86.86C167.08 86.86 172.44 81.5 172.44 74.92C172.44 68.34 167.08 62.98 160.5 62.98Z" />
				</g>
			</g>
		</g>
	</g>
</svg>